<svg width="64" height="64" viewBox="0 0 64 64" fill="none" xmlns="http://www.w3.org/2000/svg">
<g clip-path="url(#clip0_2_2)">
<path d="M49.9844 0H9.01562C1.27501 0 -5 5.8203 -5 13V51C-5 58.1797 1.27501 64 9.01562 64H49.9844C57.725 64 64 58.1797 64 51V13C64 5.8203 57.725 0 49.9844 0Z" fill="#050507"/>
<path d="M38 17H22.16C20.9347 17 19.7596 17.3687 18.8932 18.0251C18.0268 18.6815 17.54 19.5717 17.54 20.5V39.5C17.54 40.4283 17.54 43.5 17.54 44C17.54 44 17.54 48 16.22 48H5" stroke="url(#paint0_linear_2_2)" stroke-width="4.2" stroke-linecap="round" stroke-linejoin="round"/>
<path d="M44 17H47.3846C47.9402 17 48.4904 17.167 49.0037 17.4916C49.517 17.8162 49.9834 18.2919 50.3762 18.8916C50.7691 19.4913 51.0807 20.2033 51.2933 20.9868C51.506 21.7704 51.6154 22.6102 51.6154 23.4583V27.3333C51.6154 28.7036 51.972 30.0178 52.6067 30.9867C53.2415 31.9557 54.1023 32.5 55 32.5C54.1023 32.5 53.2415 33.0443 52.6067 34.0133C51.972 34.9822 51.6154 36.2964 51.6154 37.6667V41.5417C51.6154 42.3898 51.506 43.2296 51.2933 44.0132C51.0807 44.7967 50.7691 45.5087 50.3762 46.1084C49.9834 46.7081 49.517 47.1838 49.0037 47.5084C48.4904 47.8329 47.9402 48 47.3846 48H44" stroke="url(#paint1_linear_2_2)" stroke-width="4.2" stroke-linecap="round" stroke-linejoin="round"/>
<path d="M26 29L31 34.5L26 40" stroke="white" stroke-width="4.2" stroke-linecap="round" stroke-linejoin="round"/>
<path d="M36 40H43" stroke="white" stroke-width="4.2" stroke-linecap="round" stroke-linejoin="round"/>
</g>
<defs>
<linearGradient id="paint0_linear_2_2" x1="17.54" y1="17" x2="17.54" y2="43" gradientUnits="userSpaceOnUse">
<stop stop-color="#9B5CF6"/>
<stop offset="1" stop-color="#2E9BFF"/>
</linearGradient>
<linearGradient id="paint1_linear_2_2" x1="44" y1="17" x2="44" y2="48" gradientUnits="userSpaceOnUse">
<stop stop-color="#2E9BFF"/>
<stop offset="1" stop-color="#9B5CF6"/>
</linearGradient>
<clipPath id="clip0_2_2">
<rect width="64" height="64" fill="white"/>
</clipPath>
</defs>
</svg>
