<svg width="66" height="66" viewBox="0 0 66 66" fill="none" xmlns="http://www.w3.org/2000/svg">
<rect width="66" height="66" rx="14" fill="black"/>
<path d="M34.74 18H21.78C20.7775 18 19.816 18.3687 19.1071 19.0251C18.3983 19.6815 18 20.5717 18 21.5V40.5C18 41.4283 18 47.5 18 48" stroke="url(#paint0_linear_3_18)" stroke-width="4.2" stroke-linecap="round" stroke-linejoin="round"/>
<path d="M12 49L16.6452 49C17.0045 49 17.3491 48.9017 17.6032 48.7266C17.8573 48.5516 18 48.3142 18 48.0667L18 43C18 42.7525 18 41.1333 18 41" stroke="url(#paint1_linear_3_18)" stroke-width="4.2" stroke-linecap="round" stroke-linejoin="round"/>
<path d="M42.9999 18H46.3846C46.9401 18 47.4903 18.167 48.0036 18.4916C48.5169 18.8162 48.9833 19.2919 49.3762 19.8916C49.769 20.4913 50.0807 21.2033 50.2933 21.9868C50.5059 22.7704 50.6153 23.6102 50.6153 24.4583V28.3333C50.6153 29.7036 50.9719 31.0178 51.6067 31.9867C52.2414 32.9557 53.1023 33.5 53.9999 33.5C53.1023 33.5 52.2414 34.0443 51.6067 35.0133C50.9719 35.9822 50.6153 37.2964 50.6153 38.6667V42.5417C50.6153 43.3898 50.5059 44.2296 50.2933 45.0132C50.0807 45.7967 49.769 46.5087 49.3762 47.1084C48.9833 47.7081 48.5169 48.1838 48.0036 48.5084C47.4903 48.8329 46.9401 49 46.3846 49H42.9999" stroke="url(#paint2_linear_3_18)" stroke-width="4.2" stroke-linecap="round" stroke-linejoin="round"/>
<path d="M26 31L31 36.5L26 42" stroke="white" stroke-width="4.2" stroke-linecap="round" stroke-linejoin="round"/>
<path d="M36 42H43" stroke="white" stroke-width="4.2" stroke-linecap="round" stroke-linejoin="round"/>
<defs>
<linearGradient id="paint0_linear_3_18" x1="18" y1="18" x2="18" y2="44" gradientUnits="userSpaceOnUse">
<stop stop-color="#9B5CF6"/>
<stop offset="1" stop-color="#2E9BFF"/>
</linearGradient>
<linearGradient id="paint1_linear_3_18" x1="18" y1="49" x2="18" y2="42.0667" gradientUnits="userSpaceOnUse">
<stop stop-color="#9B5CF6"/>
<stop offset="1" stop-color="#2E9BFF"/>
</linearGradient>
<linearGradient id="paint2_linear_3_18" x1="42.9999" y1="18" x2="42.9999" y2="49" gradientUnits="userSpaceOnUse">
<stop stop-color="#2E9BFF"/>
<stop offset="1" stop-color="#9B5CF6"/>
</linearGradient>
</defs>
</svg>
